<mxfile host="app.diagrams.net" agent="Mozilla/5.0 (X11; Linux x86_64; rv:139.0) Gecko/20100101 Firefox/139.0" version="27.2.0">
  <diagram name="Seite-1" id="5rlcN-MIJn2jwEJ2UPRv">
    <mxGraphModel dx="395" dy="603" grid="1" gridSize="10" guides="1" tooltips="1" connect="1" arrows="1" fold="1" page="1" pageScale="1" pageWidth="827" pageHeight="1169" math="0" shadow="0">
      <root>
        <mxCell id="0" />
        <mxCell id="1" parent="0" />
        <mxCell id="Fr0SkKWDWSNzRNx7TSYj-61" value="" style="group" vertex="1" connectable="0" parent="1">
          <mxGeometry x="80" y="200" width="90" height="50" as="geometry" />
        </mxCell>
        <mxCell id="Fr0SkKWDWSNzRNx7TSYj-30" value="&lt;div&gt;&lt;font style=&quot;font-size: 11px;&quot;&gt;&lt;br&gt;&lt;/font&gt;&lt;/div&gt;&lt;div&gt;&lt;font style=&quot;font-size: 11px;&quot;&gt;&lt;br&gt;&lt;/font&gt;&lt;/div&gt;&lt;div&gt;&lt;font style=&quot;font-size: 11px;&quot;&gt;Selbstüberwacht&lt;/font&gt;&lt;/div&gt;" style="rounded=0;whiteSpace=wrap;html=1;align=center;" vertex="1" parent="Fr0SkKWDWSNzRNx7TSYj-61">
          <mxGeometry width="90" height="50" as="geometry" />
        </mxCell>
        <mxCell id="Fr0SkKWDWSNzRNx7TSYj-31" value="" style="ellipse;whiteSpace=wrap;html=1;aspect=fixed;fillColor=#b1ddf0;strokeColor=#10739e;" vertex="1" parent="Fr0SkKWDWSNzRNx7TSYj-61">
          <mxGeometry x="7" y="7" width="10" height="10" as="geometry" />
        </mxCell>
        <mxCell id="Fr0SkKWDWSNzRNx7TSYj-32" value="" style="ellipse;whiteSpace=wrap;html=1;aspect=fixed;fillColor=#b1ddf0;strokeColor=#10739e;" vertex="1" parent="Fr0SkKWDWSNzRNx7TSYj-61">
          <mxGeometry x="20" y="7" width="10" height="10" as="geometry" />
        </mxCell>
        <mxCell id="Fr0SkKWDWSNzRNx7TSYj-33" value="" style="ellipse;whiteSpace=wrap;html=1;aspect=fixed;fillColor=#b1ddf0;strokeColor=#10739e;" vertex="1" parent="Fr0SkKWDWSNzRNx7TSYj-61">
          <mxGeometry x="33" y="7" width="10" height="10" as="geometry" />
        </mxCell>
        <mxCell id="Fr0SkKWDWSNzRNx7TSYj-34" value="" style="ellipse;whiteSpace=wrap;html=1;aspect=fixed;fillColor=#b1ddf0;strokeColor=#10739e;" vertex="1" parent="Fr0SkKWDWSNzRNx7TSYj-61">
          <mxGeometry x="46" y="7" width="10" height="10" as="geometry" />
        </mxCell>
        <mxCell id="Fr0SkKWDWSNzRNx7TSYj-35" value="" style="ellipse;whiteSpace=wrap;html=1;aspect=fixed;fillColor=#b1ddf0;strokeColor=#10739e;" vertex="1" parent="Fr0SkKWDWSNzRNx7TSYj-61">
          <mxGeometry x="59" y="7" width="10" height="10" as="geometry" />
        </mxCell>
        <mxCell id="Fr0SkKWDWSNzRNx7TSYj-36" value="" style="ellipse;whiteSpace=wrap;html=1;aspect=fixed;fillColor=#b1ddf0;strokeColor=#10739e;" vertex="1" parent="Fr0SkKWDWSNzRNx7TSYj-61">
          <mxGeometry x="72" y="7" width="10" height="10" as="geometry" />
        </mxCell>
        <mxCell id="Fr0SkKWDWSNzRNx7TSYj-37" value="" style="ellipse;whiteSpace=wrap;html=1;aspect=fixed;fillColor=#b1ddf0;strokeColor=#10739e;" vertex="1" parent="Fr0SkKWDWSNzRNx7TSYj-61">
          <mxGeometry x="7" y="19" width="10" height="10" as="geometry" />
        </mxCell>
        <mxCell id="Fr0SkKWDWSNzRNx7TSYj-38" value="" style="ellipse;whiteSpace=wrap;html=1;aspect=fixed;fillColor=#b1ddf0;strokeColor=#10739e;" vertex="1" parent="Fr0SkKWDWSNzRNx7TSYj-61">
          <mxGeometry x="20" y="19" width="10" height="10" as="geometry" />
        </mxCell>
        <mxCell id="Fr0SkKWDWSNzRNx7TSYj-41" value="" style="whiteSpace=wrap;html=1;aspect=fixed;fillColor=#fad9d5;strokeColor=#ae4132;" vertex="1" parent="Fr0SkKWDWSNzRNx7TSYj-61">
          <mxGeometry x="59" y="19" width="10" height="10" as="geometry" />
        </mxCell>
        <mxCell id="Fr0SkKWDWSNzRNx7TSYj-42" value="" style="whiteSpace=wrap;html=1;aspect=fixed;fillColor=#fad9d5;strokeColor=#ae4132;" vertex="1" parent="Fr0SkKWDWSNzRNx7TSYj-61">
          <mxGeometry x="72" y="19" width="10" height="10" as="geometry" />
        </mxCell>
        <mxCell id="Fr0SkKWDWSNzRNx7TSYj-43" value="" style="ellipse;whiteSpace=wrap;html=1;aspect=fixed;fillColor=#b1ddf0;strokeColor=#10739e;" vertex="1" parent="Fr0SkKWDWSNzRNx7TSYj-61">
          <mxGeometry x="33" y="20" width="10" height="10" as="geometry" />
        </mxCell>
        <mxCell id="Fr0SkKWDWSNzRNx7TSYj-44" value="" style="ellipse;whiteSpace=wrap;html=1;aspect=fixed;fillColor=#b1ddf0;strokeColor=#10739e;" vertex="1" parent="Fr0SkKWDWSNzRNx7TSYj-61">
          <mxGeometry x="46" y="20" width="10" height="10" as="geometry" />
        </mxCell>
        <mxCell id="Fr0SkKWDWSNzRNx7TSYj-77" value="&lt;div&gt;&lt;font style=&quot;font-size: 11px;&quot;&gt;&lt;br&gt;&lt;/font&gt;&lt;/div&gt;&lt;div&gt;&lt;font style=&quot;font-size: 11px;&quot;&gt;&lt;br&gt;&lt;/font&gt;&lt;/div&gt;&lt;div&gt;&lt;font style=&quot;font-size: 11px;&quot;&gt;Ohne Beispiele&lt;/font&gt;&lt;/div&gt;" style="rounded=0;whiteSpace=wrap;html=1;align=center;" vertex="1" parent="1">
          <mxGeometry x="180" y="260" width="90" height="50" as="geometry" />
        </mxCell>
        <mxCell id="Fr0SkKWDWSNzRNx7TSYj-91" value="" style="group" vertex="1" connectable="0" parent="1">
          <mxGeometry x="180" y="200" width="90" height="50" as="geometry" />
        </mxCell>
        <mxCell id="Fr0SkKWDWSNzRNx7TSYj-64" value="&lt;div&gt;&lt;font style=&quot;font-size: 11px;&quot;&gt;&lt;br&gt;&lt;/font&gt;&lt;/div&gt;&lt;div&gt;&lt;font style=&quot;font-size: 11px;&quot;&gt;&lt;br&gt;&lt;/font&gt;&lt;/div&gt;&lt;div&gt;&lt;font style=&quot;font-size: 11px;&quot;&gt;Unüberwacht&lt;/font&gt;&lt;/div&gt;" style="rounded=0;whiteSpace=wrap;html=1;align=center;" vertex="1" parent="Fr0SkKWDWSNzRNx7TSYj-91">
          <mxGeometry width="90" height="50" as="geometry" />
        </mxCell>
        <mxCell id="Fr0SkKWDWSNzRNx7TSYj-65" value="" style="ellipse;whiteSpace=wrap;html=1;aspect=fixed;fillColor=#b1ddf0;strokeColor=#10739e;" vertex="1" parent="Fr0SkKWDWSNzRNx7TSYj-91">
          <mxGeometry x="7" y="7" width="10" height="10" as="geometry" />
        </mxCell>
        <mxCell id="Fr0SkKWDWSNzRNx7TSYj-66" value="" style="ellipse;whiteSpace=wrap;html=1;aspect=fixed;fillColor=#b1ddf0;strokeColor=#10739e;" vertex="1" parent="Fr0SkKWDWSNzRNx7TSYj-91">
          <mxGeometry x="20" y="7" width="10" height="10" as="geometry" />
        </mxCell>
        <mxCell id="Fr0SkKWDWSNzRNx7TSYj-67" value="" style="ellipse;whiteSpace=wrap;html=1;aspect=fixed;fillColor=#b1ddf0;strokeColor=#10739e;" vertex="1" parent="Fr0SkKWDWSNzRNx7TSYj-91">
          <mxGeometry x="33" y="7" width="10" height="10" as="geometry" />
        </mxCell>
        <mxCell id="Fr0SkKWDWSNzRNx7TSYj-68" value="" style="ellipse;whiteSpace=wrap;html=1;aspect=fixed;fillColor=#b1ddf0;strokeColor=#10739e;" vertex="1" parent="Fr0SkKWDWSNzRNx7TSYj-91">
          <mxGeometry x="46" y="7" width="10" height="10" as="geometry" />
        </mxCell>
        <mxCell id="Fr0SkKWDWSNzRNx7TSYj-69" value="" style="ellipse;whiteSpace=wrap;html=1;aspect=fixed;fillColor=#b1ddf0;strokeColor=#10739e;" vertex="1" parent="Fr0SkKWDWSNzRNx7TSYj-91">
          <mxGeometry x="59" y="7" width="10" height="10" as="geometry" />
        </mxCell>
        <mxCell id="Fr0SkKWDWSNzRNx7TSYj-70" value="" style="ellipse;whiteSpace=wrap;html=1;aspect=fixed;fillColor=#b1ddf0;strokeColor=#10739e;" vertex="1" parent="Fr0SkKWDWSNzRNx7TSYj-91">
          <mxGeometry x="72" y="7" width="10" height="10" as="geometry" />
        </mxCell>
        <mxCell id="Fr0SkKWDWSNzRNx7TSYj-71" value="" style="ellipse;whiteSpace=wrap;html=1;aspect=fixed;fillColor=#b1ddf0;strokeColor=#10739e;" vertex="1" parent="Fr0SkKWDWSNzRNx7TSYj-91">
          <mxGeometry x="7" y="19" width="10" height="10" as="geometry" />
        </mxCell>
        <mxCell id="Fr0SkKWDWSNzRNx7TSYj-72" value="" style="ellipse;whiteSpace=wrap;html=1;aspect=fixed;fillColor=#b1ddf0;strokeColor=#10739e;" vertex="1" parent="Fr0SkKWDWSNzRNx7TSYj-91">
          <mxGeometry x="20" y="19" width="10" height="10" as="geometry" />
        </mxCell>
        <mxCell id="Fr0SkKWDWSNzRNx7TSYj-73" value="" style="ellipse;whiteSpace=wrap;html=1;aspect=fixed;fillColor=#b1ddf0;strokeColor=#10739e;" vertex="1" parent="Fr0SkKWDWSNzRNx7TSYj-91">
          <mxGeometry x="33" y="20" width="10" height="10" as="geometry" />
        </mxCell>
        <mxCell id="Fr0SkKWDWSNzRNx7TSYj-74" value="" style="ellipse;whiteSpace=wrap;html=1;aspect=fixed;fillColor=#b1ddf0;strokeColor=#10739e;" vertex="1" parent="Fr0SkKWDWSNzRNx7TSYj-91">
          <mxGeometry x="46" y="20" width="10" height="10" as="geometry" />
        </mxCell>
        <mxCell id="Fr0SkKWDWSNzRNx7TSYj-75" value="" style="ellipse;whiteSpace=wrap;html=1;aspect=fixed;fillColor=#b1ddf0;strokeColor=#10739e;" vertex="1" parent="Fr0SkKWDWSNzRNx7TSYj-91">
          <mxGeometry x="59" y="20" width="10" height="10" as="geometry" />
        </mxCell>
        <mxCell id="Fr0SkKWDWSNzRNx7TSYj-76" value="" style="ellipse;whiteSpace=wrap;html=1;aspect=fixed;fillColor=#b1ddf0;strokeColor=#10739e;" vertex="1" parent="Fr0SkKWDWSNzRNx7TSYj-91">
          <mxGeometry x="72" y="20" width="10" height="10" as="geometry" />
        </mxCell>
        <mxCell id="Fr0SkKWDWSNzRNx7TSYj-102" value="" style="group" vertex="1" connectable="0" parent="1">
          <mxGeometry x="70" y="320" width="220" height="20" as="geometry" />
        </mxCell>
        <mxCell id="Fr0SkKWDWSNzRNx7TSYj-5" value="" style="rounded=0;whiteSpace=wrap;html=1;container=0;" vertex="1" parent="Fr0SkKWDWSNzRNx7TSYj-102">
          <mxGeometry width="220" height="20" as="geometry" />
        </mxCell>
        <mxCell id="Fr0SkKWDWSNzRNx7TSYj-3" value="" style="whiteSpace=wrap;html=1;aspect=fixed;fillColor=#fad9d5;strokeColor=#ae4132;container=0;" vertex="1" parent="Fr0SkKWDWSNzRNx7TSYj-102">
          <mxGeometry x="112.99545454545455" y="5" width="10" height="10" as="geometry" />
        </mxCell>
        <mxCell id="Fr0SkKWDWSNzRNx7TSYj-4" value="" style="ellipse;whiteSpace=wrap;html=1;aspect=fixed;fillColor=#b1ddf0;strokeColor=#10739E;container=0;" vertex="1" parent="Fr0SkKWDWSNzRNx7TSYj-102">
          <mxGeometry x="6.99545454545455" y="5" width="10" height="10" as="geometry" />
        </mxCell>
        <mxCell id="Fr0SkKWDWSNzRNx7TSYj-6" value="&lt;div align=&quot;left&quot;&gt;&lt;font style=&quot;font-size: 8px;&quot;&gt;&lt;span style=&quot;color: light-dark(rgb(0, 0, 0), rgb(84, 169, 206));&quot;&gt;Normale&lt;/span&gt; Trainingsbilder&lt;/font&gt;&lt;/div&gt;" style="text;html=1;align=left;verticalAlign=middle;whiteSpace=wrap;rounded=0;container=0;" vertex="1" parent="Fr0SkKWDWSNzRNx7TSYj-102">
          <mxGeometry x="21" y="2.5" width="90" height="15" as="geometry" />
        </mxCell>
        <mxCell id="Fr0SkKWDWSNzRNx7TSYj-7" value="&lt;div align=&quot;left&quot;&gt;&lt;font style=&quot;font-size: 8px;&quot;&gt;&lt;span style=&quot;color: light-dark(rgb(0, 0, 0), rgb(236, 143, 130));&quot;&gt;Anomale&lt;/span&gt;&amp;nbsp;Trainingsbilder&lt;/font&gt;&lt;/div&gt;" style="text;html=1;align=left;verticalAlign=middle;whiteSpace=wrap;rounded=0;container=0;" vertex="1" parent="Fr0SkKWDWSNzRNx7TSYj-102">
          <mxGeometry x="127" y="2.5" width="92.55" height="15" as="geometry" />
        </mxCell>
        <mxCell id="Fr0SkKWDWSNzRNx7TSYj-93" value="" style="group" vertex="1" connectable="0" parent="1">
          <mxGeometry x="80" y="260" width="90" height="50" as="geometry" />
        </mxCell>
        <mxCell id="Fr0SkKWDWSNzRNx7TSYj-48" value="&lt;div style=&quot;line-height: 100%;&quot;&gt;&lt;div&gt;&lt;div style=&quot;line-height: 70%;&quot;&gt;&lt;div&gt;&lt;font style=&quot;font-size: 11px; line-height: 100%;&quot;&gt;&lt;br&gt;&lt;/font&gt;&lt;/div&gt;&lt;div&gt;&lt;font style=&quot;font-size: 11px; line-height: 100%;&quot;&gt;&lt;br&gt;&lt;/font&gt;&lt;/div&gt;&lt;div&gt;&lt;font style=&quot;font-size: 11px; line-height: 100%;&quot;&gt;Wenige- /&amp;nbsp;&lt;br&gt;N- Beispiele&lt;/font&gt;&lt;/div&gt;&lt;/div&gt;&lt;/div&gt;&lt;/div&gt;" style="rounded=0;whiteSpace=wrap;html=1;align=center;" vertex="1" parent="Fr0SkKWDWSNzRNx7TSYj-93">
          <mxGeometry width="90" height="50" as="geometry" />
        </mxCell>
        <mxCell id="Fr0SkKWDWSNzRNx7TSYj-49" value="" style="ellipse;whiteSpace=wrap;html=1;aspect=fixed;fillColor=#b1ddf0;strokeColor=#10739e;" vertex="1" parent="Fr0SkKWDWSNzRNx7TSYj-93">
          <mxGeometry x="7" y="8.75" width="10" height="10" as="geometry" />
        </mxCell>
        <mxCell id="Fr0SkKWDWSNzRNx7TSYj-50" value="" style="ellipse;whiteSpace=wrap;html=1;aspect=fixed;fillColor=#b1ddf0;strokeColor=#10739e;" vertex="1" parent="Fr0SkKWDWSNzRNx7TSYj-93">
          <mxGeometry x="20" y="8.75" width="10" height="10" as="geometry" />
        </mxCell>
        <mxCell id="Fr0SkKWDWSNzRNx7TSYj-51" value="" style="ellipse;whiteSpace=wrap;html=1;aspect=fixed;fillColor=#b1ddf0;strokeColor=#10739e;" vertex="1" parent="Fr0SkKWDWSNzRNx7TSYj-93">
          <mxGeometry x="33" y="8.75" width="10" height="10" as="geometry" />
        </mxCell>
        <mxCell id="Fr0SkKWDWSNzRNx7TSYj-52" value="" style="ellipse;whiteSpace=wrap;html=1;aspect=fixed;fillColor=#b1ddf0;strokeColor=#10739e;" vertex="1" parent="Fr0SkKWDWSNzRNx7TSYj-93">
          <mxGeometry x="46" y="8.75" width="10" height="10" as="geometry" />
        </mxCell>
      </root>
    </mxGraphModel>
  </diagram>
</mxfile>
